<?xml version="1.0" encoding="utf-8"?>
<!-- Generator: Adobe Illustrator 27.0.0, SVG Export Plug-In . SVG Version: 6.00 Build 0)  -->
<svg version="1.1" id="Capa_1" xmlns="http://www.w3.org/2000/svg" xmlns:xlink="http://www.w3.org/1999/xlink" x="0px" y="0px"
	 viewBox="0 0 243 178" style="enable-background:new 0 0 243 178;" xml:space="preserve">
<style type="text/css">
	.st0{fill:#624084;}
	.st1{fill:#27A388;}
	.st2{fill:#FFFFFF;}
	.st3{fill-rule:evenodd;clip-rule:evenodd;fill:url(#SVGID_1_);}
	.st4{fill:#001E61;}
	.st5{fill:#009849;}
	.st6{fill:#4E2E80;}
	.st7{fill:url(#SVGID_00000050656980302803039270000003678705967095533225_);}
	.st8{fill:url(#SVGID_00000179620474972879155620000015601018094577080208_);}
</style>
<g>
	<path class="st0" d="M139.6,34.52c-1.06,0.35-8.74,69.74-9.81,69.74s-88.26,19.61-88.26,19.61L21.92,44.69L139.6,34.52z"/>
	<polygon class="st1" points="32.08,84.52 27.13,115.97 131.03,100.27 134.83,67.65 	"/>
	<g>
		<path class="st2" d="M63.06,74.42c0.14,0.62,0.07,1.22-0.21,1.81c-0.28,0.59-0.7,1.01-1.26,1.27c-0.59,0.26-1.12,0.28-1.62,0.06
			c-0.49-0.22-0.81-0.62-0.94-1.21c-0.11-0.36-0.22-0.81-0.33-1.33c-0.11-0.43-0.24-0.94-0.39-1.54c-0.15-0.6-0.31-1.25-0.47-1.96
			l-7.4,1.23c-0.22,0.78-0.41,1.49-0.57,2.14c-0.16,0.65-0.31,1.22-0.43,1.69c-0.13,0.57-0.26,1.05-0.39,1.46
			c-0.16,0.64-0.49,1.15-1,1.54c-0.51,0.39-1.05,0.56-1.63,0.49c-0.55-0.07-0.96-0.35-1.22-0.85c-0.26-0.5-0.31-1.09-0.14-1.76
			l7.71-29.24c0.13-0.53,0.37-0.98,0.73-1.35c0.36-0.36,0.78-0.58,1.26-0.65c0.48-0.07,0.89,0.01,1.23,0.27
			c0.34,0.25,0.57,0.63,0.67,1.12L63.06,74.42z M56.75,67.07c-0.37-1.6-0.75-3.26-1.15-4.96c-0.39-1.7-0.77-3.31-1.13-4.82
			c-0.44,1.64-0.89,3.39-1.37,5.23c-0.47,1.84-0.93,3.64-1.38,5.38L56.75,67.07z"/>
		<path class="st2" d="M68.49,76c-0.84-0.4-1.51-1.02-2-1.86c-0.49-0.84-0.73-1.79-0.72-2.85l0.26-25.48
			c0.01-0.61,0.2-1.15,0.59-1.63c0.38-0.47,0.83-0.75,1.33-0.83c0.53-0.08,0.98,0.06,1.34,0.42c0.36,0.36,0.54,0.84,0.53,1.45
			l-0.15,25.42c0,0.64,0.26,1.07,0.78,1.3c0.46,0.24,0.77,0.63,0.91,1.16c0.14,0.53,0.07,1.09-0.22,1.68
			c-0.26,0.55-0.65,0.95-1.18,1.18C69.45,76.19,68.96,76.2,68.49,76z"/>
		<path class="st2" d="M76.48,49.2c-0.65,0.1-1.2-0.07-1.65-0.51c-0.45-0.44-0.67-1.03-0.67-1.76c0-0.73,0.23-1.39,0.68-1.97
			c0.45-0.58,1-0.92,1.64-1.02c0.64-0.1,1.19,0.07,1.64,0.51c0.45,0.44,0.67,1.03,0.68,1.76c0,0.73-0.22,1.39-0.67,1.96
			C77.68,48.76,77.13,49.1,76.48,49.2z M78.51,72.46c0,0.6-0.18,1.14-0.55,1.61c-0.37,0.47-0.84,0.76-1.39,0.85
			c-0.55,0.09-1.02-0.04-1.4-0.39c-0.38-0.35-0.57-0.83-0.57-1.43l-0.03-19.07c0-0.61,0.19-1.14,0.55-1.62
			c0.37-0.47,0.82-0.75,1.36-0.83c0.54-0.08,0.99,0.05,1.36,0.41c0.37,0.35,0.55,0.83,0.56,1.44L78.51,72.46z"/>
		<path class="st2" d="M81.67,53.53c-0.15-0.55-0.1-1.1,0.14-1.66c0.24-0.56,0.61-0.96,1.11-1.2c0.51-0.24,0.99-0.26,1.46-0.06
			c0.47,0.2,0.78,0.57,0.93,1.11c0.36,1.24,0.73,2.51,1.11,3.81c0.33,1.12,0.7,2.36,1.1,3.71c0.41,1.36,0.83,2.71,1.25,4.06
			c0.37-1.48,0.74-2.96,1.1-4.44c0.36-1.48,0.68-2.82,0.97-4.04c0.34-1.41,0.67-2.79,0.98-4.13c0.13-0.59,0.43-1.05,0.88-1.39
			c0.46-0.34,0.94-0.47,1.45-0.39c0.51,0.08,0.89,0.36,1.14,0.84c0.25,0.48,0.31,1.01,0.19,1.6l-4.7,19.68
			c-0.11,0.46-0.33,0.86-0.67,1.2c-0.34,0.34-0.73,0.55-1.16,0.62c-0.43,0.07-0.82-0.01-1.16-0.23c-0.34-0.23-0.58-0.55-0.74-0.97
			L81.67,53.53z"/>
		<path class="st2" d="M100.52,45.47c-0.65,0.1-1.2-0.07-1.66-0.5c-0.46-0.43-0.7-1.01-0.72-1.73c-0.02-0.72,0.19-1.37,0.62-1.94
			c0.43-0.57,0.97-0.9,1.61-1c0.64-0.1,1.19,0.07,1.65,0.5c0.46,0.43,0.7,1.01,0.73,1.73c0.02,0.72-0.18,1.36-0.61,1.93
			C101.7,45.04,101.16,45.37,100.52,45.47z M103.21,68.37c0.02,0.59-0.15,1.12-0.51,1.59c-0.36,0.47-0.82,0.75-1.36,0.84
			c-0.55,0.09-1.02-0.04-1.41-0.38c-0.39-0.34-0.59-0.81-0.61-1.41l-0.57-18.78c-0.02-0.6,0.15-1.13,0.51-1.59
			c0.35-0.46,0.8-0.74,1.33-0.82c0.53-0.08,0.99,0.05,1.37,0.4c0.38,0.35,0.58,0.82,0.6,1.42L103.21,68.37z"/>
		<path class="st2" d="M114.28,54.89l-0.12-2.47c-0.02-0.5-0.17-0.93-0.45-1.31c-0.27-0.38-0.63-0.63-1.06-0.75
			c-0.43-0.12-0.87-0.1-1.32,0.07c-0.45,0.16-0.82,0.46-1.11,0.88c-0.35,0.46-0.79,0.73-1.31,0.82c-0.52,0.08-0.98-0.05-1.36-0.4
			c-0.41-0.37-0.63-0.84-0.65-1.4c-0.02-0.56,0.16-1.09,0.53-1.59c0.83-1.1,1.83-1.88,3-2.32c1.17-0.45,2.32-0.49,3.47-0.14
			c1.17,0.35,2.13,1.02,2.86,2.02c0.73,0.99,1.13,2.17,1.2,3.53l0.75,13.82c0.03,0.59-0.13,1.11-0.48,1.57
			c-0.35,0.46-0.8,0.74-1.35,0.83l-4.32,0.71c-0.86,0.14-1.69,0.1-2.47-0.13c-0.78-0.23-1.46-0.6-2.05-1.12
			c-0.59-0.51-1.06-1.16-1.43-1.93c-0.36-0.77-0.56-1.62-0.6-2.56c-0.04-0.93,0.09-1.84,0.39-2.72c0.29-0.88,0.71-1.67,1.24-2.36
			c0.53-0.7,1.16-1.28,1.9-1.76c0.74-0.48,1.53-0.78,2.38-0.92L114.28,54.89z M112.14,59.45c-0.66,0.11-1.2,0.44-1.63,1.01
			c-0.43,0.57-0.64,1.21-0.6,1.93c0.03,0.71,0.29,1.28,0.77,1.71c0.48,0.42,1.05,0.58,1.71,0.47l2.36-0.38l-0.26-5.11L112.14,59.45z
			"/>
	</g>
	<g>
		<path class="st2" d="M67.33,81.55c0.81-0.12,1.58-0.07,2.29,0.16c0.71,0.23,1.34,0.6,1.89,1.11c0.55,0.51,0.98,1.13,1.29,1.87
			c0.32,0.74,0.49,1.55,0.51,2.45l0.28,12.74c0.02,0.89-0.11,1.76-0.41,2.59c-0.29,0.83-0.71,1.59-1.25,2.27
			c-0.54,0.68-1.18,1.26-1.9,1.72c-0.73,0.46-1.52,0.77-2.36,0.92l-4.35,0.77c-0.49,0.09-0.9-0.02-1.24-0.33
			c-0.34-0.3-0.51-0.71-0.52-1.23L61.47,84.3c0-0.52,0.16-0.99,0.49-1.4c0.33-0.41,0.72-0.66,1.19-0.73L67.33,81.55z M69.93,87.66
			c-0.01-0.77-0.27-1.39-0.77-1.85c-0.5-0.47-1.1-0.65-1.8-0.54l-2.52,0.39L65,104.12l2.6-0.45c0.72-0.12,1.33-0.5,1.82-1.13
			c0.49-0.62,0.73-1.32,0.72-2.09L69.93,87.66z"/>
		<path class="st2" d="M79.46,79.45c0.31-0.35,0.67-0.54,1.08-0.58c0.4-0.03,0.74,0.1,1,0.39c0.29,0.32,0.43,0.69,0.44,1.14
			c0,0.45-0.15,0.84-0.47,1.2l-3.39,3.96c-0.3,0.35-0.65,0.55-1.06,0.58c-0.41,0.04-0.76-0.09-1.05-0.38
			c-0.29-0.31-0.43-0.7-0.43-1.14c0-0.45,0.16-0.85,0.48-1.21L79.46,79.45z M78.81,105.46c-0.46,0.08-0.85-0.02-1.17-0.29
			c-0.32-0.27-0.49-0.65-0.51-1.14l-0.43-15.26c-0.01-0.48,0.13-0.92,0.42-1.29c0.3-0.38,0.67-0.6,1.11-0.67
			c0.42-0.06,0.79,0.04,1.12,0.33c0.33,0.28,0.5,0.66,0.51,1.14l0.51,15.2c0.02,0.48-0.13,0.91-0.44,1.3
			C79.61,105.15,79.24,105.38,78.81,105.46z"/>
		<path class="st2" d="M89.61,92.48l-0.1-1.99c-0.02-0.4-0.14-0.75-0.37-1.06c-0.23-0.31-0.52-0.51-0.88-0.6
			c-0.36-0.1-0.72-0.08-1.1,0.06c-0.37,0.13-0.68,0.37-0.93,0.71c-0.29,0.37-0.65,0.6-1.09,0.67c-0.44,0.07-0.81-0.04-1.13-0.32
			c-0.34-0.3-0.52-0.68-0.54-1.13c-0.02-0.45,0.13-0.88,0.45-1.29c0.7-0.89,1.53-1.52,2.5-1.89c0.97-0.36,1.93-0.4,2.88-0.12
			c0.98,0.28,1.77,0.82,2.37,1.62c0.61,0.8,0.94,1.75,1,2.84l0.61,11.13c0.03,0.47-0.11,0.9-0.4,1.27c-0.29,0.38-0.67,0.6-1.12,0.68
			l-3.6,0.62c-0.72,0.12-1.41,0.1-2.05-0.08c-0.65-0.18-1.22-0.47-1.71-0.88c-0.49-0.41-0.88-0.93-1.18-1.55
			c-0.3-0.62-0.47-1.31-0.5-2.07c-0.03-0.76,0.08-1.49,0.33-2.21c0.25-0.71,0.59-1.35,1.03-1.92c0.44-0.57,0.97-1.04,1.58-1.43
			c0.61-0.39,1.27-0.64,1.98-0.76L89.61,92.48z M87.82,96.17c-0.55,0.09-1,0.37-1.36,0.83c-0.36,0.46-0.53,0.99-0.51,1.56
			c0.03,0.58,0.24,1.04,0.64,1.37c0.4,0.34,0.88,0.46,1.42,0.37l1.97-0.33l-0.21-4.12L87.82,96.17z"/>
	</g>
	<g>
		<path class="st2" d="M43.07,93.55c-0.24-0.18-0.36-0.44-0.37-0.77c0-0.33,0.11-0.62,0.34-0.89c0.23-0.26,0.52-0.43,0.86-0.49
			l0.95-0.16l-0.08-4.11c-0.01-0.33,0.11-0.62,0.33-0.88c0.23-0.26,0.51-0.42,0.85-0.47c0.34-0.05,0.63,0.01,0.86,0.2
			c0.24,0.19,0.36,0.44,0.37,0.77l0.1,4.08l1.49-0.26c0.34-0.06,0.63,0,0.88,0.18c0.24,0.18,0.37,0.43,0.38,0.75
			c0.01,0.32-0.1,0.61-0.33,0.88c-0.23,0.26-0.51,0.42-0.86,0.48l-1.5,0.26l0.18,6.42c0.01,0.39,0.17,0.69,0.47,0.91
			c0.3,0.21,0.67,0.28,1.09,0.2c0.35-0.07,0.65-0.01,0.9,0.16c0.25,0.17,0.38,0.42,0.39,0.74c0.01,0.32-0.1,0.61-0.33,0.88
			c-0.23,0.27-0.53,0.44-0.88,0.5c-0.56,0.11-1.09,0.12-1.59,0.02c-0.5-0.1-0.93-0.28-1.31-0.54c-0.37-0.26-0.67-0.6-0.89-1.01
			c-0.23-0.41-0.34-0.87-0.36-1.39l-0.14-6.46l-0.95,0.17C43.6,93.79,43.31,93.73,43.07,93.55z"/>
		<path class="st2" d="M53.22,101.75c-0.5-0.1-0.94-0.27-1.31-0.53c-0.37-0.26-0.68-0.59-0.91-0.99c-0.23-0.41-0.35-0.86-0.37-1.37
			l-0.27-7.51c-0.01-0.32,0.1-0.61,0.32-0.87c0.23-0.26,0.51-0.42,0.85-0.48c0.34-0.06,0.63,0,0.88,0.18
			c0.24,0.18,0.37,0.43,0.38,0.75l0.32,7.46c0.02,0.39,0.18,0.69,0.49,0.9c0.31,0.21,0.67,0.28,1.1,0.2l1.52-0.29l-0.45-8.77
			c-0.02-0.32,0.09-0.6,0.31-0.86c0.22-0.25,0.5-0.41,0.85-0.47c0.34-0.06,0.63,0,0.88,0.18c0.24,0.18,0.38,0.42,0.39,0.74
			l0.57,9.83c0.02,0.31-0.09,0.6-0.31,0.86c-0.23,0.26-0.52,0.43-0.87,0.49l-2.78,0.54C54.25,101.84,53.72,101.84,53.22,101.75z"/>
	</g>
	<g>
		<path class="st2" d="M96.25,91.68c-0.76-0.17-1.35-0.53-1.77-1.08c-0.42-0.55-0.61-1.22-0.58-2l0.25-5.19
			c0.04-0.78,0.29-1.51,0.76-2.2c0.47-0.69,1.08-1.23,1.83-1.63c0.77-0.4,1.54-0.58,2.3-0.54c0.76,0.04,1.41,0.29,1.95,0.76
			c0.25,0.19,0.36,0.44,0.36,0.76c-0.01,0.32-0.14,0.61-0.4,0.86c-0.24,0.28-0.53,0.44-0.87,0.48c-0.34,0.05-0.62-0.03-0.85-0.24
			c-0.21-0.17-0.46-0.27-0.76-0.27c-0.3-0.01-0.58,0.06-0.86,0.2c-0.3,0.16-0.53,0.37-0.7,0.63c-0.17,0.26-0.27,0.53-0.28,0.83
			l-0.21,5.17c-0.01,0.29,0.06,0.54,0.22,0.75c0.16,0.21,0.38,0.35,0.68,0.42c0.28,0.06,0.57,0.04,0.88-0.06
			c0.31-0.1,0.58-0.27,0.81-0.51c0.25-0.28,0.54-0.44,0.89-0.49c0.34-0.05,0.63,0.02,0.87,0.23c0.25,0.2,0.38,0.45,0.37,0.76
			c-0.01,0.31-0.14,0.6-0.41,0.88c-0.59,0.62-1.29,1.06-2.09,1.34C97.81,91.79,97.03,91.85,96.25,91.68z"/>
		<path class="st2" d="M105.61,90.5c-0.56,0.09-1.08,0.07-1.58-0.05c-0.49-0.12-0.92-0.32-1.27-0.59c-0.36-0.28-0.64-0.62-0.84-1.04
			c-0.2-0.42-0.3-0.89-0.29-1.4l0.13-5.13c0.01-0.51,0.13-1.01,0.35-1.5c0.22-0.48,0.51-0.92,0.87-1.3
			c0.36-0.38,0.78-0.71,1.26-0.97c0.48-0.26,0.99-0.43,1.53-0.51c0.54-0.08,1.04-0.05,1.52,0.08c0.47,0.13,0.88,0.33,1.23,0.61
			c0.35,0.28,0.62,0.63,0.83,1.05c0.21,0.42,0.31,0.88,0.31,1.39l-0.01,5.06c0,0.51-0.11,1-0.32,1.48c-0.21,0.48-0.5,0.91-0.86,1.3
			c-0.36,0.38-0.79,0.71-1.28,0.98C106.69,90.23,106.16,90.41,105.61,90.5z M105.74,80.31c-0.42,0.06-0.77,0.25-1.07,0.56
			c-0.3,0.32-0.45,0.67-0.45,1.06l-0.09,5.11c-0.01,0.39,0.14,0.7,0.43,0.93c0.29,0.23,0.65,0.31,1.08,0.24
			c0.43-0.06,0.79-0.26,1.09-0.57c0.3-0.32,0.45-0.67,0.45-1.06l0.05-5.08c0-0.39-0.14-0.7-0.42-0.93
			C106.5,80.34,106.15,80.25,105.74,80.31z"/>
		<path class="st2" d="M112.25,89.47c-0.35,0.05-0.65-0.01-0.89-0.19c-0.24-0.18-0.36-0.43-0.37-0.75l-0.03-10
			c0-0.32,0.12-0.61,0.35-0.86c0.23-0.25,0.52-0.4,0.86-0.45l2.68-0.37c0.53-0.07,1.04-0.05,1.52,0.08
			c0.48,0.13,0.89,0.33,1.25,0.61c0.36,0.28,0.64,0.62,0.86,1.03c0.22,0.41,0.33,0.87,0.34,1.37l0.21,7.37
			c0.01,0.32-0.11,0.6-0.35,0.85c-0.24,0.25-0.53,0.4-0.86,0.46c-0.35,0.05-0.65-0.01-0.9-0.19c-0.25-0.18-0.37-0.43-0.38-0.74
			l-0.15-7.4c-0.01-0.38-0.16-0.69-0.45-0.92c-0.29-0.23-0.64-0.31-1.06-0.25l-1.48,0.21l0.09,8.82c0,0.32-0.12,0.6-0.36,0.86
			C112.87,89.27,112.58,89.42,112.25,89.47z"/>
	</g>
	<linearGradient id="SVGID_1_" gradientUnits="userSpaceOnUse" x1="122.9475" y1="88.8155" x2="207.2766" y2="95.0499">
		<stop  offset="0.2532" style="stop-color:#27A388"/>
		<stop  offset="1" style="stop-color:#624084"/>
	</linearGradient>
	<circle class="st3" cx="156.98" cy="91.33" r="38.03"/>
	<g>
		<path class="st2" d="M156.98,59.75c-8.56,0-16.61,3.29-22.66,9.25c-6.05,5.97-9.39,13.9-9.39,22.33s3.33,16.37,9.39,22.33
			c6.05,5.97,14.1,9.25,22.66,9.25c8.56,0,16.61-3.29,22.66-9.25c6.05-5.97,9.39-13.9,9.39-22.33c0-8.44-3.33-16.37-9.39-22.33
			C173.59,63.03,165.54,59.75,156.98,59.75z"/>
		<path class="st4" d="M164.21,85.43c1.51-0.19,2.41-1.41,2.88-2.29l-0.28,1.69l2.44-0.42l1.37-8.83c0,0-1.36-0.37-3.04-0.12
			c-3.38,0.51-5.48,3.05-5.97,5.99C161.15,84.12,162.48,85.65,164.21,85.43 M164.48,80.7c0.56-2.48,1.94-3.52,2.69-3.71
			c0.58-0.14,0.68-0.01,0.68-0.01l-0.36,2.1c0,0.01-0.01,0.02-0.01,0.05c-0.21,1.1-1,4.15-2.38,4.32
			C164.53,83.53,164.05,82.57,164.48,80.7"/>
		<polygon class="st4" points="150.99,87.44 152.92,75.07 150.17,75.55 148.24,87.92 		"/>
		<path class="st4" d="M139.44,86.91l4.72-0.79l-0.43,2.59l2.93-0.55l1.9-12.38l-4.37,0.73l-10.34,13.85l3.66-0.65L139.44,86.91z
			 M145.5,78.14l-0.99,5.91l-3.49,0.59L145.5,78.14z"/>
		<path class="st4" d="M155.31,86.74l0.75-4.81c0.48,0.7,2.08,2.83,2.49,3.37c0.58,0.77,1.39,1.35,2.35,1.37
			c1.25,0.02,1.68-0.27,1.68-0.27l-3.88-4.95l4.09-5.04l-3.19,0.54l-3.48,4.58l1.11-7.15l-2.75,0.48l-1.93,12.37L155.31,86.74z"/>
		<polygon class="st4" points="175.64,77.55 171.67,78.22 171.35,80.14 175.34,79.42 		"/>
		<g>
			<path class="st5" d="M172.6,95.89c-0.36,0.07-0.7,0.1-1.02,0.1c-0.32,0-0.6-0.02-0.84-0.05c-0.28-0.03-0.54-0.08-0.77-0.15
				l0.22-1.84c0.21,0.1,0.43,0.18,0.67,0.24c0.21,0.05,0.45,0.09,0.71,0.12c0.26,0.03,0.54,0.01,0.84-0.05
				c0.2-0.04,0.4-0.14,0.59-0.3c0.19-0.16,0.27-0.37,0.25-0.62c-0.02-0.18-0.09-0.31-0.23-0.4c-0.13-0.09-0.3-0.16-0.49-0.22
				c-0.19-0.06-0.4-0.11-0.63-0.16c-0.22-0.05-0.44-0.12-0.64-0.23c-0.2-0.1-0.37-0.25-0.52-0.44c-0.14-0.19-0.23-0.45-0.26-0.78
				c-0.04-0.45,0.01-0.88,0.13-1.29c0.13-0.41,0.32-0.78,0.58-1.1c0.26-0.33,0.58-0.61,0.96-0.83c0.38-0.23,0.8-0.39,1.26-0.48
				c0.36-0.07,0.69-0.11,1-0.11c0.3,0,0.57,0.01,0.79,0.05c0.26,0.05,0.49,0.1,0.7,0.16l-0.24,1.81c-0.2-0.1-0.4-0.17-0.63-0.24
				c-0.19-0.05-0.41-0.09-0.65-0.11c-0.24-0.02-0.5-0.01-0.76,0.04c-0.09,0.02-0.19,0.05-0.28,0.1c-0.09,0.05-0.18,0.11-0.26,0.18
				c-0.08,0.07-0.14,0.16-0.19,0.25c-0.05,0.1-0.07,0.2-0.06,0.33c0.02,0.18,0.09,0.31,0.22,0.39c0.13,0.08,0.3,0.14,0.5,0.19
				c0.2,0.05,0.41,0.09,0.65,0.13c0.23,0.04,0.45,0.11,0.65,0.21c0.2,0.1,0.38,0.24,0.52,0.43c0.15,0.19,0.24,0.45,0.27,0.79
				c0.04,0.47,0,0.92-0.14,1.35c-0.13,0.43-0.33,0.81-0.6,1.15c-0.27,0.34-0.6,0.63-0.99,0.87C173.53,95.63,173.09,95.8,172.6,95.89
				z"/>
			<path class="st5" d="M148.92,93.46c-0.06-0.44-0.26-0.78-0.59-1.01c-0.51-0.37-1.3-0.47-2.35-0.3c-1.41,0.23-4.19,1.53-4.65,4.76
				c-0.22,1.54,0.3,2.44,0.77,2.93c0.54,0.56,1.32,0.86,2.18,0.86c0.14,0,0.28-0.01,0.42-0.02c1.38-0.15,2.49-0.65,3.05-1.37
				c0.22-0.28,0.35-0.59,0.41-0.94c0.08-0.45,0.09-0.77,0.09-0.77l0-0.12l-0.09,0.08c-0.01,0.01-1.07,1.03-2.67,1.23
				c-0.99,0.12-1.63-0.3-1.77-1.16c0.76-0.14,1.84-0.4,2.79-0.88C149,95.51,148.98,93.92,148.92,93.46z M143.82,96.32
				c0.22-0.93,0.94-2.33,2.06-2.61v0c0.11-0.03,0.21-0.04,0.31-0.04c0.17,0,0.31,0.04,0.41,0.12c0.11,0.09,0.17,0.24,0.16,0.42
				c-0.03,0.41-0.3,1.01-1.46,1.57C144.85,95.99,144.36,96.17,143.82,96.32z"/>
			<path class="st5" d="M162.11,91.21c-0.06-0.44-0.26-0.78-0.59-1.01c-0.51-0.37-1.3-0.47-2.35-0.3c-1.41,0.23-4.19,1.53-4.65,4.76
				c-0.22,1.54,0.3,2.44,0.77,2.93c0.54,0.56,1.32,0.86,2.18,0.86c0.14,0,0.28-0.01,0.42-0.02c1.38-0.15,2.49-0.65,3.05-1.37
				c0.22-0.28,0.35-0.59,0.41-0.94c0.08-0.45,0.09-0.77,0.09-0.77l0-0.12l-0.09,0.08c-0.01,0.01-1.07,1.03-2.67,1.23
				c-0.99,0.12-1.63-0.3-1.77-1.16c0.76-0.14,1.84-0.4,2.79-0.88C162.2,93.26,162.18,91.67,162.11,91.21z M157.01,94.07
				c0.22-0.93,0.94-2.33,2.06-2.61c0.11-0.03,0.21-0.04,0.31-0.04c0.17,0,0.31,0.04,0.41,0.12c0.11,0.09,0.17,0.24,0.16,0.42
				c-0.03,0.41-0.3,1.01-1.46,1.57C158.05,93.74,157.55,93.92,157.01,94.07z"/>
			<path class="st5" d="M180.39,92.73c-0.99,0.12-1.63-0.3-1.77-1.16c0.76-0.14,1.84-0.4,2.79-0.88c2.49-1.25,2.47-2.84,2.41-3.3
				c-0.06-0.44-0.26-0.78-0.59-1.01c-0.51-0.37-1.3-0.47-2.35-0.3c-1.41,0.23-4.19,1.53-4.65,4.76c-0.22,1.54,0.3,2.44,0.77,2.93
				c0.54,0.56,1.32,0.86,2.18,0.86c0.14,0,0.28-0.01,0.42-0.02c1.38-0.15,2.49-0.65,3.05-1.37c0.22-0.28,0.35-0.59,0.41-0.94
				c0.08-0.45,0.09-0.77,0.09-0.77l0-0.12l-0.09,0.08C183.05,91.5,181.99,92.52,180.39,92.73z M178.71,90.25
				c0.22-0.93,0.94-2.33,2.06-2.61c0.11-0.03,0.21-0.04,0.31-0.04c0.17,0,0.31,0.04,0.41,0.12c0.11,0.09,0.17,0.24,0.16,0.42
				c-0.03,0.41-0.3,1.01-1.46,1.57C179.75,89.91,179.25,90.1,178.71,90.25z"/>
			<g>
				<path class="st5" d="M132.77,91.71l3.63-0.62c0.77-0.13,1.44-0.14,2.02-0.03c0.58,0.11,1.06,0.32,1.45,0.62
					c0.39,0.3,0.69,0.67,0.9,1.12c0.21,0.44,0.33,0.93,0.37,1.46c0.06,0.9-0.03,1.8-0.29,2.7c-0.25,0.9-0.65,1.72-1.19,2.47
					c-0.54,0.75-1.21,1.39-2,1.92c-0.8,0.53-1.72,0.89-2.76,1.07l-3.94,0.67L132.77,91.71z M134.19,100.45l0.89-0.17
					c0.57-0.11,1.06-0.36,1.46-0.75c0.4-0.39,0.73-0.85,0.98-1.38c0.25-0.52,0.42-1.08,0.52-1.66c0.1-0.59,0.14-1.13,0.1-1.63
					c-0.04-0.56-0.21-1-0.5-1.32c-0.3-0.32-0.77-0.42-1.41-0.31l-0.92,0.16L134.19,100.45z"/>
			</g>
			<g>
				<path class="st5" d="M152.2,96.97c0.16-1.02,0.32-2.05,0.49-3.09l1.53-0.28l0.3-1.86l-1.54,0.31l0.06-0.42
					c0.05-0.39,0.16-0.7,0.33-0.91c0.17-0.21,0.45-0.36,0.83-0.42c0.1-0.02,0.19-0.03,0.27-0.04c0.08-0.01,0.16-0.02,0.22-0.02
					c0.06,0.01,0.13,0.01,0.19,0.01l0.26-1.72c-0.09-0.02-0.2-0.03-0.32-0.04c-0.11-0.01-0.24-0.01-0.4,0
					c-0.16,0.01-0.34,0.03-0.55,0.07c-0.99,0.18-1.76,0.57-2.3,1.17c-0.54,0.6-0.88,1.44-1.02,2.52l-0.03,0.22l-0.96,0.17l-0.3,1.86
					l0.96-0.17c-0.16,1.03-0.31,2.06-0.47,3.08c-0.13,0.82-0.26,1.64-0.39,2.47l2.46-0.43C151.94,98.63,152.07,97.8,152.2,96.97z"/>
			</g>
			<path class="st5" d="M169.61,90.92c0.08-0.51,0.11-0.95,0.08-1.32c-0.04-0.59-0.24-0.98-0.59-1.17c-0.35-0.2-0.81-0.24-1.38-0.13
				c-0.32,0.06-0.61,0.16-0.88,0.3c-0.26,0.13-0.5,0.29-0.69,0.46c-0.2,0.17-0.37,0.36-0.52,0.56c-0.14,0.2-0.27,0.41-0.37,0.63
				l-0.03,0.01l0.2-1.25l-2.39,0.46l-1.22,8.19l2.53-0.44l0.65-4.38c0.07-0.5,0.21-0.94,0.43-1.31c0.21-0.37,0.51-0.59,0.89-0.66
				c0.25-0.05,0.42-0.03,0.52,0.04c0.1,0.08,0.16,0.22,0.17,0.42c0.01,0.17,0,0.4-0.04,0.67l-0.74,4.89l2.53-0.44L169.61,90.92z"/>
		</g>
		<g>
			<path class="st5" d="M185.81,92.63c-0.22,0.21-0.48,0.31-0.78,0.31c-0.31,0-0.58-0.11-0.79-0.32c-0.21-0.21-0.32-0.47-0.32-0.78
				c0-0.32,0.12-0.59,0.35-0.8c0.22-0.2,0.47-0.3,0.77-0.3c0.31,0,0.57,0.11,0.79,0.32c0.22,0.22,0.33,0.48,0.33,0.78
				C186.14,92.16,186.03,92.42,185.81,92.63z M184.37,91.2c-0.18,0.18-0.27,0.39-0.27,0.64c0,0.26,0.09,0.47,0.27,0.65
				c0.18,0.18,0.4,0.27,0.65,0.27c0.25,0,0.47-0.09,0.65-0.27c0.18-0.18,0.27-0.4,0.27-0.65c0-0.25-0.09-0.46-0.27-0.64
				c-0.18-0.18-0.4-0.28-0.65-0.28C184.77,90.93,184.55,91.02,184.37,91.2z M184.54,92.46v-1.22c0.08,0,0.19,0,0.34,0
				c0.15,0,0.24,0,0.25,0c0.1,0.01,0.18,0.03,0.24,0.06c0.11,0.06,0.16,0.16,0.16,0.29c0,0.1-0.03,0.18-0.09,0.22
				c-0.06,0.05-0.13,0.07-0.21,0.08c0.08,0.02,0.14,0.04,0.17,0.07c0.07,0.06,0.11,0.15,0.11,0.27v0.11c0,0.01,0,0.02,0,0.04
				c0,0.01,0.01,0.02,0.01,0.04l0.01,0.03h-0.31c-0.01-0.04-0.02-0.1-0.02-0.17c0-0.07-0.01-0.12-0.02-0.15
				c-0.02-0.04-0.05-0.07-0.09-0.09c-0.02-0.01-0.06-0.02-0.11-0.02l-0.07,0h-0.07v0.43H184.54z M185.13,91.47
				c-0.04-0.02-0.11-0.03-0.19-0.03h-0.08v0.35h0.13c0.08,0,0.13-0.01,0.18-0.04c0.04-0.03,0.06-0.08,0.06-0.14
				C185.23,91.55,185.2,91.5,185.13,91.47z"/>
		</g>
		<g>
			<path class="st5" d="M151.01,106.87l-0.55,0.09l0.26-1.53l-1.06,0.17l-0.25,1.53l-0.55,0.09l0.56-3.43l0.55-0.09l-0.24,1.4
				l1.06-0.17l0.23-1.4l0.56-0.09L151.01,106.87z"/>
			<path class="st5" d="M152.29,106.66l-0.52,0.09l0.41-2.46l0.52-0.09L152.29,106.66z M152.84,103.43c0,0.1-0.03,0.19-0.09,0.27
				c-0.06,0.08-0.14,0.13-0.24,0.14c-0.09,0.01-0.16,0-0.21-0.05c-0.05-0.05-0.07-0.11-0.07-0.18c0-0.09,0.03-0.18,0.09-0.27
				c0.06-0.08,0.15-0.13,0.25-0.15c0.09-0.01,0.15,0,0.2,0.04C152.82,103.28,152.84,103.35,152.84,103.43z"/>
			<path class="st5" d="M154.76,106.25l-0.5,0.08l0.06-0.36l-0.01,0c-0.06,0.13-0.13,0.24-0.23,0.34c-0.1,0.1-0.23,0.16-0.39,0.19
				c-0.21,0.03-0.36-0.02-0.46-0.16c-0.1-0.14-0.15-0.34-0.16-0.59c0-0.19,0.02-0.39,0.06-0.6c0.04-0.21,0.11-0.4,0.2-0.58
				c0.09-0.18,0.2-0.33,0.33-0.46c0.13-0.13,0.28-0.2,0.44-0.23c0.14-0.02,0.26-0.01,0.33,0.05c0.08,0.06,0.13,0.15,0.14,0.26
				l0.01,0l0.25-1.52l0.52-0.09L154.76,106.25z M154.49,104.76c0-0.15-0.03-0.26-0.08-0.35c-0.05-0.09-0.13-0.12-0.24-0.1
				c-0.1,0.02-0.18,0.07-0.25,0.16c-0.07,0.09-0.13,0.2-0.18,0.33c-0.05,0.13-0.09,0.26-0.11,0.41c-0.02,0.14-0.04,0.27-0.03,0.39
				c0,0.14,0.03,0.25,0.07,0.33c0.05,0.08,0.13,0.11,0.24,0.09c0.09-0.02,0.18-0.07,0.25-0.16c0.07-0.09,0.14-0.2,0.19-0.32
				c0.05-0.12,0.09-0.26,0.11-0.4C154.48,105,154.49,104.87,154.49,104.76z"/>
			<path class="st5" d="M156.91,103.95c-0.02,0-0.03,0-0.05,0c-0.02,0-0.04,0-0.06,0.01c-0.07,0.01-0.14,0.04-0.2,0.1
				c-0.06,0.05-0.12,0.12-0.17,0.2c-0.05,0.08-0.09,0.17-0.13,0.26c-0.03,0.1-0.06,0.19-0.07,0.29l-0.2,1.24l-0.53,0.09l0.31-1.85
				c0.01-0.03,0.01-0.08,0.02-0.14c0.01-0.06,0.02-0.12,0.03-0.18c0.01-0.06,0.02-0.12,0.02-0.17c0.01-0.05,0.01-0.09,0.01-0.12
				l0.5-0.08c0,0.02-0.01,0.06-0.01,0.1c-0.01,0.04-0.01,0.09-0.02,0.13c-0.01,0.05-0.01,0.09-0.02,0.14
				c-0.01,0.04-0.01,0.08-0.02,0.1l0.01,0c0.07-0.19,0.16-0.34,0.27-0.45c0.11-0.11,0.22-0.17,0.34-0.19c0.03,0,0.05-0.01,0.08,0
				L156.91,103.95z"/>
			<path class="st5" d="M158.98,103.99c0,0.2-0.02,0.41-0.07,0.62c-0.05,0.21-0.13,0.4-0.22,0.57c-0.1,0.17-0.22,0.32-0.36,0.43
				c-0.14,0.12-0.3,0.19-0.48,0.22c-0.25,0.04-0.44-0.01-0.58-0.15c-0.14-0.14-0.21-0.35-0.21-0.62c0-0.21,0.02-0.41,0.07-0.62
				c0.05-0.21,0.13-0.39,0.23-0.56c0.1-0.17,0.22-0.31,0.36-0.43c0.14-0.12,0.3-0.19,0.48-0.22c0.25-0.04,0.44,0.01,0.58,0.15
				C158.9,103.5,158.97,103.71,158.98,103.99z M158.46,104.1c0-0.15-0.03-0.26-0.08-0.35c-0.05-0.08-0.13-0.12-0.24-0.1
				c-0.09,0.02-0.18,0.07-0.25,0.16c-0.07,0.09-0.13,0.2-0.18,0.33c-0.05,0.13-0.09,0.26-0.11,0.4c-0.03,0.14-0.04,0.27-0.04,0.39
				c0,0.14,0.03,0.25,0.08,0.33c0.05,0.08,0.13,0.11,0.23,0.1c0.1-0.02,0.18-0.07,0.25-0.16c0.07-0.09,0.13-0.2,0.18-0.32
				c0.05-0.12,0.09-0.26,0.11-0.4C158.45,104.35,158.46,104.22,158.46,104.1z"/>
			<path class="st5" d="M160.63,103.3l-0.41,0.07l-0.21,1.26c-0.01,0.03-0.01,0.06-0.01,0.09c0,0.03,0,0.06,0,0.08
				c0,0.13,0.07,0.18,0.2,0.15c0.03,0,0.05-0.01,0.09-0.02c0.03-0.01,0.06-0.02,0.09-0.04l-0.06,0.42
				c-0.04,0.03-0.09,0.05-0.14,0.07c-0.05,0.02-0.11,0.03-0.16,0.04c-0.17,0.03-0.31,0.01-0.39-0.06c-0.09-0.07-0.13-0.18-0.14-0.34
				c0-0.06,0.01-0.12,0.02-0.2l0.23-1.38l-0.33,0.05l0.07-0.42l0.32-0.05l0.1-0.64l0.51-0.08l-0.1,0.64l0.42-0.07L160.63,103.3z"/>
			<path class="st5" d="M162.52,103.17c0,0.06,0,0.12-0.01,0.18c-0.01,0.06-0.02,0.13-0.03,0.2l-0.15,0.97
				c-0.02,0.09-0.03,0.18-0.04,0.28c-0.01,0.1-0.02,0.17-0.02,0.21l-0.44,0.07c0-0.02,0-0.04,0-0.08c0-0.03,0.01-0.07,0.01-0.1
				c0-0.04,0.01-0.07,0.01-0.1c0-0.03,0.01-0.06,0.02-0.09l-0.01,0c-0.06,0.14-0.13,0.26-0.23,0.34c-0.1,0.09-0.22,0.15-0.38,0.17
				c-0.07,0.01-0.13,0.01-0.2,0c-0.06-0.01-0.12-0.04-0.17-0.07c-0.05-0.04-0.09-0.09-0.12-0.15c-0.03-0.07-0.04-0.15-0.05-0.25
				c0-0.18,0.03-0.34,0.1-0.48c0.07-0.13,0.15-0.25,0.26-0.34c0.11-0.09,0.23-0.17,0.37-0.22c0.14-0.06,0.28-0.09,0.42-0.12
				l0.14-0.02c0.01-0.07,0.02-0.12,0.02-0.16c0-0.03,0-0.06,0-0.08c0-0.21-0.1-0.3-0.3-0.27c-0.09,0.01-0.18,0.05-0.26,0.11
				c-0.08,0.06-0.16,0.12-0.22,0.2l-0.22-0.28c0.1-0.12,0.22-0.22,0.36-0.3c0.14-0.08,0.28-0.14,0.41-0.16
				c0.24-0.04,0.42-0.01,0.53,0.09C162.47,102.8,162.52,102.96,162.52,103.17z M161.82,103.95c-0.08,0.01-0.15,0.03-0.23,0.07
				c-0.07,0.03-0.14,0.07-0.2,0.12c-0.06,0.05-0.1,0.11-0.14,0.19c-0.03,0.07-0.05,0.16-0.05,0.26c0,0.09,0.02,0.16,0.07,0.19
				c0.05,0.03,0.1,0.05,0.16,0.04c0.07-0.01,0.14-0.04,0.2-0.09c0.06-0.05,0.11-0.11,0.15-0.18c0.04-0.07,0.08-0.15,0.11-0.23
				c0.03-0.08,0.05-0.16,0.06-0.24l0.02-0.14L161.82,103.95z"/>
			<path class="st5" d="M163.47,104.81l-0.53,0.09l0.6-3.66l0.52-0.09L163.47,104.81z"/>
			<path class="st5" d="M165.63,102.56c-0.03-0.03-0.07-0.05-0.11-0.06c-0.04-0.01-0.1-0.01-0.17,0c-0.09,0.02-0.18,0.07-0.25,0.15
				c-0.07,0.09-0.14,0.19-0.19,0.31c-0.05,0.12-0.09,0.25-0.12,0.39c-0.03,0.14-0.04,0.26-0.04,0.38c0,0.15,0.03,0.26,0.08,0.34
				c0.05,0.08,0.15,0.11,0.28,0.08c0.06-0.01,0.11-0.03,0.16-0.06c0.04-0.03,0.09-0.06,0.14-0.11l0.16,0.38
				c-0.07,0.07-0.15,0.13-0.25,0.18c-0.1,0.05-0.2,0.08-0.3,0.1c-0.14,0.02-0.26,0.02-0.36-0.01c-0.1-0.03-0.18-0.08-0.25-0.15
				c-0.07-0.07-0.11-0.16-0.15-0.27c-0.03-0.11-0.05-0.22-0.05-0.35c0-0.19,0.02-0.39,0.07-0.6c0.05-0.2,0.12-0.39,0.22-0.56
				c0.09-0.17,0.21-0.32,0.35-0.44c0.14-0.12,0.3-0.2,0.48-0.23c0.14-0.02,0.26-0.02,0.35,0c0.09,0.03,0.15,0.06,0.2,0.1
				L165.63,102.56z"/>
			<path class="st5" d="M166.49,104.32l-0.52,0.09l0.41-2.46l0.52-0.09L166.49,104.32z M167.04,101.09c0,0.1-0.03,0.19-0.09,0.27
				c-0.06,0.08-0.14,0.13-0.24,0.14c-0.09,0.01-0.16,0-0.21-0.05c-0.05-0.05-0.07-0.11-0.07-0.18c0-0.09,0.03-0.18,0.09-0.27
				c0.06-0.08,0.15-0.13,0.25-0.15c0.09-0.01,0.15,0,0.2,0.04C167.01,100.94,167.04,101.01,167.04,101.09z"/>
			<path class="st5" d="M168.5,102l-0.41,0.07l-0.21,1.26c-0.01,0.03-0.01,0.06-0.01,0.09c0,0.03,0,0.06,0,0.08
				c0,0.13,0.07,0.18,0.2,0.15c0.03,0,0.05-0.01,0.09-0.02c0.03-0.01,0.06-0.02,0.09-0.04l-0.06,0.42
				c-0.04,0.03-0.09,0.05-0.14,0.07c-0.05,0.02-0.11,0.03-0.16,0.04c-0.17,0.03-0.31,0.01-0.39-0.06c-0.09-0.07-0.13-0.18-0.14-0.34
				c0-0.06,0.01-0.12,0.02-0.2l0.23-1.38l-0.33,0.05l0.07-0.42l0.32-0.05l0.1-0.64l0.51-0.08l-0.1,0.64l0.42-0.07L168.5,102z"/>
			<path class="st5" d="M170.4,101.87c0,0.06,0,0.12-0.01,0.18c-0.01,0.06-0.02,0.13-0.03,0.2l-0.15,0.97
				c-0.02,0.09-0.03,0.18-0.04,0.28c-0.01,0.1-0.02,0.17-0.02,0.21l-0.44,0.07c0-0.02,0-0.04,0-0.08c0-0.03,0.01-0.07,0.01-0.1
				c0-0.04,0.01-0.07,0.01-0.1c0-0.03,0.01-0.06,0.02-0.09l-0.01,0c-0.06,0.14-0.13,0.26-0.23,0.34c-0.1,0.09-0.22,0.15-0.38,0.17
				c-0.07,0.01-0.13,0.01-0.2,0c-0.06-0.01-0.12-0.04-0.17-0.07c-0.05-0.04-0.09-0.09-0.12-0.15c-0.03-0.07-0.04-0.15-0.05-0.25
				c0-0.18,0.03-0.34,0.1-0.48c0.07-0.13,0.15-0.25,0.26-0.34c0.11-0.09,0.23-0.17,0.37-0.22c0.14-0.06,0.28-0.09,0.42-0.12
				l0.14-0.02c0.01-0.07,0.02-0.12,0.02-0.16c0-0.03,0-0.06,0-0.08c0-0.21-0.1-0.3-0.3-0.27c-0.09,0.01-0.18,0.05-0.26,0.11
				c-0.08,0.06-0.16,0.12-0.22,0.2l-0.22-0.28c0.1-0.12,0.22-0.22,0.36-0.3c0.14-0.08,0.28-0.14,0.41-0.16
				c0.24-0.04,0.42-0.01,0.53,0.09C170.34,101.5,170.4,101.66,170.4,101.87z M169.69,102.65c-0.08,0.01-0.15,0.03-0.23,0.07
				c-0.07,0.03-0.14,0.07-0.2,0.12c-0.06,0.05-0.1,0.11-0.14,0.19c-0.03,0.07-0.05,0.16-0.05,0.26c0,0.09,0.02,0.16,0.07,0.19
				c0.05,0.03,0.1,0.05,0.16,0.04c0.07-0.01,0.14-0.04,0.2-0.09c0.06-0.05,0.11-0.11,0.15-0.18c0.04-0.07,0.08-0.15,0.11-0.23
				c0.03-0.08,0.05-0.16,0.06-0.24l0.02-0.14L169.69,102.65z"/>
			<path class="st5" d="M147.26,109.6l-0.64,0.1l-0.48,2.96l-0.55,0.09l0.49-2.96l-0.64,0.11l0.08-0.47l1.83-0.3L147.26,109.6z"/>
			<path class="st5" d="M148.75,110.43c0,0.06,0,0.12-0.01,0.18c-0.01,0.06-0.02,0.13-0.03,0.2l-0.15,0.97
				c-0.02,0.09-0.03,0.18-0.04,0.28c-0.01,0.1-0.02,0.17-0.02,0.21l-0.44,0.07c0-0.02,0-0.04,0-0.08c0-0.03,0.01-0.07,0.01-0.1
				c0-0.04,0.01-0.07,0.01-0.1c0-0.03,0.01-0.06,0.02-0.09l-0.01,0c-0.06,0.14-0.13,0.26-0.23,0.34c-0.1,0.09-0.22,0.15-0.38,0.17
				c-0.07,0.01-0.13,0.01-0.2,0s-0.12-0.04-0.17-0.07c-0.05-0.04-0.09-0.09-0.12-0.15c-0.03-0.07-0.05-0.15-0.05-0.25
				c0-0.18,0.03-0.34,0.1-0.48c0.07-0.13,0.15-0.25,0.26-0.34c0.11-0.09,0.23-0.17,0.37-0.22c0.14-0.06,0.28-0.09,0.42-0.12
				l0.14-0.02c0.01-0.07,0.02-0.12,0.02-0.16c0-0.03,0-0.06,0-0.08c0-0.21-0.1-0.3-0.3-0.27c-0.09,0.01-0.18,0.05-0.26,0.11
				c-0.08,0.06-0.16,0.12-0.22,0.2l-0.22-0.28c0.1-0.12,0.22-0.22,0.36-0.3c0.14-0.08,0.28-0.14,0.41-0.16
				c0.24-0.04,0.42-0.01,0.53,0.09C148.69,110.06,148.75,110.22,148.75,110.43z M148.04,111.21c-0.08,0.01-0.15,0.03-0.23,0.07
				c-0.07,0.03-0.14,0.07-0.2,0.12c-0.06,0.05-0.1,0.11-0.14,0.19c-0.03,0.07-0.05,0.16-0.05,0.26c0,0.09,0.02,0.16,0.07,0.19
				c0.05,0.03,0.1,0.05,0.16,0.04c0.07-0.01,0.14-0.04,0.2-0.09c0.06-0.05,0.11-0.11,0.15-0.18c0.04-0.07,0.08-0.15,0.11-0.23
				c0.03-0.08,0.05-0.16,0.06-0.24l0.02-0.14L148.04,111.21z"/>
			<path class="st5" d="M151.27,110.19c0,0.19-0.02,0.39-0.07,0.6c-0.05,0.21-0.11,0.4-0.2,0.58c-0.09,0.18-0.19,0.33-0.32,0.46
				c-0.13,0.13-0.27,0.2-0.43,0.23c-0.16,0.03-0.29,0-0.36-0.07c-0.08-0.07-0.13-0.17-0.15-0.28l-0.01,0l-0.06,0.36l-0.5,0.08
				l0.6-3.66l0.51-0.08l-0.25,1.52l0.01,0c0.05-0.12,0.13-0.23,0.23-0.32c0.1-0.09,0.22-0.15,0.36-0.17
				c0.21-0.03,0.37,0.02,0.48,0.15C151.21,109.74,151.27,109.93,151.27,110.19z M150.74,110.34c0-0.14-0.03-0.25-0.08-0.33
				c-0.05-0.08-0.13-0.11-0.24-0.09c-0.09,0.02-0.18,0.07-0.25,0.16c-0.07,0.09-0.14,0.2-0.19,0.32c-0.05,0.13-0.09,0.26-0.11,0.4
				c-0.03,0.14-0.04,0.27-0.04,0.38c0,0.15,0.03,0.27,0.08,0.35c0.05,0.08,0.13,0.12,0.24,0.1c0.1-0.02,0.18-0.07,0.25-0.16
				c0.07-0.09,0.13-0.2,0.19-0.33c0.05-0.13,0.09-0.26,0.11-0.41C150.73,110.59,150.74,110.46,150.74,110.34z"/>
			<path class="st5" d="M152.18,111.67l-0.53,0.09l0.6-3.66l0.52-0.09L152.18,111.67z"/>
			<path class="st5" d="M154.8,109.57c0,0.06,0,0.14-0.01,0.23c-0.01,0.09-0.02,0.22-0.05,0.38l-1.26,0.21
				c-0.01,0.04-0.01,0.08-0.01,0.12s0,0.07,0,0.11c0,0.14,0.03,0.25,0.09,0.32c0.06,0.08,0.14,0.11,0.26,0.09
				c0.1-0.02,0.18-0.06,0.25-0.13s0.12-0.15,0.17-0.24l0.37,0.17c-0.09,0.17-0.2,0.32-0.34,0.44c-0.14,0.12-0.31,0.2-0.51,0.24
				c-0.25,0.04-0.45-0.01-0.59-0.14c-0.14-0.14-0.21-0.35-0.21-0.64c0-0.21,0.02-0.42,0.08-0.62c0.05-0.2,0.13-0.39,0.23-0.56
				c0.1-0.17,0.22-0.31,0.36-0.43c0.14-0.12,0.29-0.19,0.46-0.21c0.13-0.02,0.24-0.02,0.33,0c0.09,0.02,0.17,0.07,0.23,0.13
				c0.06,0.06,0.1,0.14,0.13,0.24C154.79,109.35,154.8,109.45,154.8,109.57z M154.33,109.65c0-0.12-0.02-0.21-0.07-0.27
				c-0.04-0.06-0.11-0.08-0.21-0.07c-0.07,0.01-0.13,0.04-0.19,0.09c-0.06,0.05-0.11,0.11-0.15,0.18c-0.04,0.07-0.08,0.14-0.1,0.22
				c-0.03,0.08-0.04,0.15-0.05,0.21l0.75-0.12c0.01-0.05,0.02-0.09,0.02-0.13C154.33,109.72,154.33,109.68,154.33,109.65z"/>
			<path class="st5" d="M156.44,108.98l-0.41,0.07l-0.21,1.26c-0.01,0.03-0.01,0.06-0.01,0.09c0,0.03,0,0.06,0,0.08
				c0,0.13,0.07,0.18,0.2,0.15c0.03,0,0.05-0.01,0.09-0.02c0.03-0.01,0.06-0.02,0.09-0.04l-0.06,0.42
				c-0.04,0.03-0.09,0.05-0.14,0.07c-0.05,0.02-0.11,0.03-0.16,0.04c-0.17,0.03-0.31,0.01-0.39-0.06c-0.09-0.07-0.13-0.18-0.14-0.34
				c0-0.06,0.01-0.12,0.02-0.2l0.23-1.38l-0.33,0.05l0.07-0.42l0.32-0.05l0.1-0.64l0.51-0.08l-0.1,0.64l0.42-0.07L156.44,108.98z"/>
			<path class="st5" d="M158.34,108.85c0,0.06,0,0.12-0.01,0.18c-0.01,0.06-0.02,0.13-0.03,0.2l-0.15,0.97
				c-0.02,0.09-0.03,0.18-0.04,0.28c-0.01,0.1-0.02,0.17-0.02,0.21l-0.44,0.07c0-0.02,0-0.04,0-0.08c0-0.03,0.01-0.07,0.01-0.1
				c0-0.04,0.01-0.07,0.01-0.1c0-0.03,0.01-0.06,0.02-0.09l-0.01,0c-0.06,0.14-0.13,0.26-0.23,0.34c-0.1,0.09-0.22,0.15-0.38,0.17
				c-0.07,0.01-0.13,0.01-0.2,0s-0.12-0.04-0.17-0.07c-0.05-0.04-0.09-0.09-0.12-0.15c-0.03-0.07-0.04-0.15-0.05-0.25
				c0-0.18,0.03-0.34,0.1-0.48c0.07-0.13,0.15-0.25,0.26-0.34c0.11-0.09,0.23-0.17,0.37-0.22c0.14-0.06,0.28-0.09,0.42-0.12
				l0.14-0.02c0.01-0.07,0.02-0.12,0.02-0.16c0-0.03,0-0.06,0-0.08c0-0.21-0.1-0.3-0.3-0.27c-0.09,0.01-0.18,0.05-0.26,0.11
				c-0.08,0.06-0.16,0.12-0.22,0.2l-0.22-0.28c0.1-0.12,0.22-0.22,0.36-0.3c0.14-0.08,0.28-0.14,0.41-0.16
				c0.24-0.04,0.42-0.01,0.53,0.09C158.28,108.48,158.33,108.64,158.34,108.85z M157.63,109.63c-0.08,0.01-0.15,0.03-0.23,0.07
				c-0.07,0.03-0.14,0.07-0.2,0.12c-0.06,0.05-0.1,0.11-0.14,0.19c-0.03,0.07-0.05,0.16-0.05,0.26c0,0.09,0.02,0.16,0.07,0.19
				c0.05,0.03,0.1,0.05,0.16,0.04c0.07-0.01,0.14-0.04,0.2-0.09c0.06-0.05,0.11-0.11,0.15-0.18c0.04-0.07,0.08-0.15,0.11-0.23
				c0.03-0.08,0.05-0.16,0.06-0.24l0.02-0.14L157.63,109.63z"/>
			<path class="st5" d="M161.91,107.2l-1.03,0.17l-0.17,0.85c0.05-0.03,0.11-0.06,0.17-0.08c0.06-0.02,0.12-0.04,0.17-0.05
				c0.13-0.02,0.23-0.02,0.33,0.01c0.09,0.03,0.17,0.08,0.23,0.14c0.06,0.07,0.11,0.15,0.14,0.24c0.03,0.1,0.05,0.2,0.05,0.32
				c0,0.2-0.03,0.39-0.09,0.56c-0.06,0.17-0.14,0.33-0.24,0.46c-0.1,0.13-0.23,0.25-0.37,0.33c-0.14,0.09-0.3,0.15-0.47,0.17
				c-0.24,0.04-0.43,0.01-0.58-0.09c-0.14-0.1-0.24-0.24-0.29-0.43l0.48-0.26c0.03,0.1,0.08,0.18,0.15,0.24
				c0.07,0.06,0.17,0.08,0.28,0.06c0.09-0.02,0.18-0.05,0.25-0.1c0.07-0.05,0.13-0.12,0.18-0.2c0.05-0.08,0.09-0.17,0.11-0.27
				c0.03-0.1,0.04-0.2,0.04-0.3c0-0.16-0.04-0.27-0.13-0.35c-0.08-0.08-0.2-0.11-0.35-0.08c-0.1,0.02-0.21,0.05-0.33,0.1
				c-0.12,0.05-0.23,0.1-0.32,0.16l0.35-1.83l1.5-0.25L161.91,107.2z"/>
			<path class="st5" d="M164.51,107.34c0,0.13-0.01,0.29-0.02,0.46c-0.02,0.17-0.04,0.35-0.09,0.53c-0.04,0.18-0.1,0.36-0.16,0.54
				c-0.07,0.18-0.15,0.34-0.25,0.48c-0.1,0.15-0.21,0.27-0.35,0.37c-0.13,0.1-0.28,0.16-0.46,0.19c-0.16,0.03-0.29,0.02-0.39-0.02
				c-0.11-0.04-0.19-0.11-0.26-0.2c-0.07-0.09-0.11-0.2-0.14-0.32c-0.03-0.13-0.04-0.26-0.05-0.4c0-0.14,0.01-0.3,0.02-0.47
				c0.02-0.18,0.04-0.35,0.08-0.54c0.04-0.18,0.09-0.36,0.16-0.54c0.07-0.18,0.15-0.34,0.24-0.49c0.1-0.14,0.21-0.27,0.35-0.37
				c0.13-0.1,0.29-0.17,0.46-0.19c0.16-0.03,0.29-0.02,0.39,0.03c0.11,0.04,0.19,0.11,0.26,0.21c0.07,0.09,0.11,0.2,0.14,0.33
				C164.49,107.07,164.5,107.2,164.51,107.34z M163.96,107.41c0-0.08-0.01-0.15-0.02-0.23c-0.01-0.07-0.03-0.13-0.06-0.19
				c-0.03-0.05-0.06-0.09-0.1-0.12c-0.04-0.03-0.1-0.03-0.16-0.02c-0.1,0.02-0.18,0.07-0.25,0.15c-0.07,0.09-0.13,0.19-0.19,0.32
				c-0.05,0.13-0.1,0.26-0.14,0.41c-0.04,0.15-0.07,0.3-0.09,0.45c-0.02,0.15-0.04,0.28-0.05,0.41c-0.01,0.13-0.01,0.23-0.01,0.31
				c0,0.08,0.01,0.15,0.02,0.22c0.01,0.07,0.03,0.13,0.06,0.18c0.02,0.05,0.06,0.09,0.1,0.12c0.04,0.03,0.09,0.03,0.16,0.02
				c0.1-0.02,0.18-0.07,0.26-0.15c0.07-0.08,0.14-0.19,0.19-0.31c0.05-0.13,0.1-0.26,0.14-0.41c0.04-0.15,0.07-0.3,0.09-0.44
				c0.02-0.15,0.04-0.28,0.05-0.41C163.95,107.59,163.96,107.49,163.96,107.41z"/>
			<path class="st5" d="M166.99,106.93c0,0.13-0.01,0.29-0.02,0.46c-0.02,0.17-0.04,0.35-0.09,0.53s-0.1,0.36-0.16,0.54
				c-0.07,0.18-0.15,0.34-0.25,0.48c-0.1,0.15-0.21,0.27-0.35,0.37c-0.13,0.1-0.28,0.16-0.46,0.19c-0.16,0.03-0.29,0.02-0.39-0.02
				c-0.11-0.04-0.19-0.11-0.26-0.2c-0.07-0.09-0.11-0.2-0.14-0.32c-0.03-0.13-0.04-0.26-0.05-0.4c0-0.14,0.01-0.3,0.02-0.47
				c0.02-0.18,0.04-0.35,0.08-0.54c0.04-0.18,0.09-0.36,0.16-0.54c0.07-0.18,0.15-0.34,0.24-0.49c0.1-0.14,0.21-0.27,0.35-0.37
				s0.29-0.17,0.46-0.19c0.16-0.03,0.29-0.02,0.39,0.03c0.11,0.04,0.19,0.11,0.26,0.21c0.07,0.09,0.11,0.2,0.14,0.33
				C166.97,106.66,166.99,106.79,166.99,106.93z M166.44,107c0-0.08-0.01-0.15-0.02-0.23c-0.01-0.07-0.03-0.13-0.06-0.19
				c-0.03-0.05-0.06-0.09-0.1-0.12c-0.04-0.03-0.1-0.03-0.16-0.02c-0.1,0.02-0.18,0.07-0.25,0.15c-0.07,0.09-0.13,0.19-0.19,0.32
				c-0.05,0.13-0.1,0.26-0.14,0.41c-0.04,0.15-0.07,0.3-0.09,0.45c-0.02,0.15-0.04,0.28-0.05,0.41c-0.01,0.13-0.01,0.23-0.01,0.31
				c0,0.08,0.01,0.15,0.02,0.22c0.01,0.07,0.03,0.13,0.06,0.18c0.02,0.05,0.06,0.09,0.1,0.12c0.04,0.03,0.09,0.03,0.16,0.02
				c0.1-0.02,0.18-0.07,0.26-0.15c0.07-0.08,0.14-0.19,0.19-0.31c0.05-0.13,0.1-0.26,0.14-0.41c0.04-0.15,0.07-0.3,0.09-0.44
				c0.02-0.15,0.04-0.28,0.05-0.41C166.43,107.18,166.44,107.08,166.44,107z"/>
			<path class="st5" d="M171.54,106.58c0,0.05,0,0.11-0.01,0.18c-0.01,0.07-0.02,0.14-0.03,0.21l-0.25,1.55l-0.53,0.09l0.25-1.55
				c0.01-0.04,0.01-0.08,0.02-0.12c0-0.04,0.01-0.08,0.01-0.11c0-0.08-0.02-0.14-0.05-0.19c-0.03-0.05-0.1-0.07-0.19-0.05
				c-0.05,0.01-0.1,0.03-0.16,0.07s-0.1,0.08-0.15,0.13c-0.04,0.05-0.08,0.11-0.12,0.18c-0.03,0.07-0.06,0.14-0.07,0.21l-0.25,1.55
				l-0.53,0.09l0.25-1.55c0.01-0.04,0.01-0.08,0.02-0.12c0-0.04,0.01-0.08,0.01-0.11c0-0.08-0.02-0.14-0.05-0.19
				c-0.03-0.05-0.1-0.07-0.19-0.05c-0.12,0.02-0.23,0.1-0.32,0.23c-0.09,0.13-0.15,0.3-0.19,0.49l-0.23,1.43l-0.52,0.09l0.31-1.84
				c0-0.03,0.01-0.08,0.02-0.14c0.01-0.06,0.02-0.12,0.03-0.18c0.01-0.06,0.02-0.12,0.02-0.17c0.01-0.05,0.01-0.09,0.02-0.12
				l0.5-0.08c-0.01,0.04-0.01,0.11-0.02,0.18c-0.01,0.08-0.02,0.15-0.03,0.21l0.01,0c0.06-0.14,0.15-0.27,0.26-0.38
				c0.11-0.11,0.25-0.17,0.4-0.2c0.09-0.01,0.17-0.01,0.23,0c0.06,0.02,0.12,0.04,0.16,0.09c0.04,0.04,0.07,0.09,0.09,0.15
				c0.02,0.06,0.03,0.12,0.04,0.19c0.03-0.07,0.07-0.15,0.12-0.21c0.05-0.07,0.1-0.13,0.16-0.19c0.06-0.06,0.13-0.11,0.2-0.15
				s0.16-0.07,0.25-0.08c0.1-0.02,0.18-0.01,0.24,0.01c0.07,0.02,0.12,0.06,0.16,0.11c0.04,0.05,0.07,0.11,0.09,0.17
				C171.53,106.44,171.54,106.51,171.54,106.58z"/>
			<path class="st5" d="M173.71,108.05c-0.03,0.18-0.07,0.35-0.12,0.5c-0.05,0.15-0.13,0.29-0.22,0.41c-0.09,0.12-0.2,0.22-0.33,0.3
				c-0.13,0.08-0.29,0.14-0.47,0.17c-0.16,0.03-0.32,0.02-0.46-0.02c-0.14-0.04-0.26-0.1-0.34-0.19l0.31-0.42
				c0.07,0.06,0.14,0.11,0.23,0.14c0.09,0.03,0.18,0.04,0.3,0.02c0.09-0.02,0.17-0.05,0.24-0.09c0.07-0.05,0.13-0.11,0.17-0.18
				c0.05-0.07,0.09-0.15,0.12-0.24c0.03-0.09,0.05-0.19,0.07-0.29l0.06-0.33l-0.01,0c-0.06,0.12-0.13,0.23-0.22,0.32
				c-0.09,0.09-0.21,0.15-0.38,0.18c-0.2,0.03-0.36-0.02-0.47-0.15c-0.11-0.14-0.17-0.33-0.17-0.58c0-0.19,0.02-0.39,0.06-0.59
				c0.04-0.21,0.11-0.4,0.2-0.57c0.09-0.18,0.19-0.33,0.32-0.45c0.13-0.12,0.27-0.2,0.44-0.23c0.14-0.02,0.26,0,0.34,0.06
				c0.09,0.06,0.14,0.15,0.16,0.27l0.01,0l0.05-0.33l0.5-0.08L173.71,108.05z M173.43,106.64c0-0.15-0.03-0.26-0.08-0.35
				c-0.05-0.09-0.13-0.12-0.24-0.1c-0.1,0.02-0.18,0.07-0.25,0.16c-0.07,0.09-0.13,0.2-0.18,0.33c-0.05,0.13-0.09,0.26-0.11,0.41
				c-0.02,0.14-0.04,0.27-0.03,0.39c0,0.14,0.03,0.25,0.08,0.33c0.05,0.08,0.13,0.11,0.23,0.09c0.09-0.02,0.18-0.07,0.25-0.16
				c0.07-0.09,0.14-0.2,0.19-0.32c0.05-0.12,0.09-0.26,0.11-0.4C173.42,106.88,173.43,106.75,173.43,106.64z"/>
			<path class="st6" d="M152.67,116.58l-0.54,0.09l0.44-2.65l-0.01,0l-1.12,2.76l-0.45,0.07l-0.23-2.54l-0.01,0l-0.43,2.65
				l-0.5,0.08l0.57-3.43l0.74-0.12l0.24,2.41l0.02,0l1.06-2.63l0.81-0.13L152.67,116.58z"/>
			<path class="st6" d="M155.18,114.36c0,0.06,0,0.12-0.01,0.18c-0.01,0.06-0.02,0.13-0.03,0.2l-0.15,0.97
				c-0.02,0.09-0.03,0.18-0.04,0.28c-0.01,0.1-0.02,0.17-0.02,0.21l-0.44,0.07c0-0.02,0-0.04,0-0.08c0-0.03,0.01-0.07,0.01-0.1
				c0-0.04,0.01-0.07,0.01-0.1c0-0.03,0.01-0.06,0.02-0.09l-0.01,0c-0.06,0.14-0.13,0.26-0.23,0.34c-0.1,0.09-0.22,0.15-0.38,0.17
				c-0.07,0.01-0.13,0.01-0.2,0c-0.06-0.01-0.12-0.04-0.17-0.07c-0.05-0.04-0.09-0.09-0.12-0.15c-0.03-0.07-0.04-0.15-0.05-0.25
				c0-0.18,0.03-0.34,0.1-0.48c0.07-0.13,0.15-0.25,0.26-0.34c0.11-0.09,0.23-0.17,0.37-0.22c0.14-0.06,0.28-0.09,0.42-0.12
				l0.14-0.02c0.01-0.07,0.02-0.12,0.02-0.16c0-0.03,0-0.06,0-0.08c0-0.21-0.1-0.3-0.3-0.27c-0.09,0.01-0.18,0.05-0.26,0.11
				c-0.08,0.06-0.16,0.12-0.22,0.2l-0.22-0.28c0.1-0.12,0.22-0.22,0.36-0.3c0.14-0.08,0.28-0.14,0.41-0.16
				c0.24-0.04,0.42-0.01,0.53,0.09C155.12,114,155.18,114.15,155.18,114.36z M154.47,115.15c-0.08,0.01-0.15,0.03-0.23,0.07
				c-0.07,0.03-0.14,0.07-0.2,0.12c-0.06,0.05-0.1,0.11-0.14,0.19c-0.03,0.07-0.05,0.16-0.05,0.26c0,0.09,0.02,0.16,0.07,0.19
				c0.05,0.03,0.1,0.05,0.16,0.04c0.07-0.01,0.14-0.04,0.2-0.09c0.06-0.05,0.11-0.11,0.15-0.18c0.04-0.07,0.08-0.15,0.11-0.23
				c0.03-0.08,0.05-0.16,0.06-0.24l0.02-0.14L154.47,115.15z"/>
			<path class="st6" d="M156.96,113.96c-0.05-0.05-0.1-0.08-0.17-0.1c-0.06-0.02-0.14-0.02-0.22-0.01
				c-0.09,0.02-0.18,0.06-0.25,0.13c-0.07,0.07-0.1,0.16-0.1,0.26c0,0.04,0.01,0.08,0.02,0.11c0.01,0.03,0.03,0.05,0.06,0.08
				c0.02,0.02,0.06,0.04,0.09,0.06c0.04,0.02,0.08,0.03,0.13,0.05c0.14,0.05,0.25,0.12,0.34,0.2s0.14,0.21,0.14,0.38
				c0,0.14-0.02,0.27-0.07,0.38c-0.05,0.11-0.12,0.21-0.2,0.29c-0.08,0.08-0.18,0.15-0.28,0.19c-0.1,0.05-0.21,0.08-0.32,0.1
				c-0.15,0.02-0.29,0.02-0.43-0.01c-0.13-0.03-0.24-0.09-0.31-0.17l0.32-0.38c0.05,0.05,0.11,0.09,0.18,0.13
				c0.07,0.03,0.16,0.04,0.26,0.02c0.1-0.02,0.18-0.06,0.25-0.13c0.07-0.07,0.1-0.16,0.1-0.27c0-0.09-0.03-0.17-0.1-0.22
				c-0.07-0.05-0.15-0.09-0.24-0.12c-0.12-0.04-0.23-0.1-0.31-0.18c-0.08-0.08-0.13-0.2-0.13-0.36c0-0.13,0.02-0.25,0.07-0.36
				c0.05-0.11,0.11-0.2,0.2-0.28c0.08-0.08,0.18-0.14,0.28-0.19c0.1-0.05,0.21-0.08,0.33-0.1c0.14-0.02,0.26-0.02,0.37,0
				c0.11,0.02,0.19,0.06,0.26,0.12L156.96,113.96z"/>
			<path class="st6" d="M158.73,113.6l-0.41,0.07l-0.21,1.26c-0.01,0.03-0.01,0.06-0.01,0.09c0,0.03,0,0.06,0,0.08
				c0,0.13,0.07,0.18,0.2,0.15c0.03,0,0.05-0.01,0.09-0.02c0.03-0.01,0.06-0.02,0.09-0.04l-0.06,0.42
				c-0.04,0.03-0.09,0.05-0.14,0.07c-0.05,0.02-0.11,0.03-0.16,0.04c-0.17,0.03-0.31,0.01-0.39-0.06c-0.09-0.07-0.13-0.18-0.14-0.34
				c0-0.06,0.01-0.12,0.02-0.2l0.23-1.38l-0.33,0.05l0.07-0.42l0.32-0.05l0.1-0.64l0.51-0.08l-0.1,0.64l0.42-0.07L158.73,113.6z"/>
			<path class="st6" d="M159.42,115.47l-0.52,0.09l0.41-2.46l0.52-0.09L159.42,115.47z M159.97,112.24c0,0.1-0.03,0.19-0.09,0.27
				c-0.06,0.08-0.14,0.13-0.24,0.14c-0.09,0.01-0.16,0-0.21-0.05c-0.05-0.05-0.07-0.11-0.07-0.18c0-0.09,0.03-0.18,0.09-0.27
				c0.06-0.08,0.15-0.13,0.25-0.15c0.09-0.01,0.15,0,0.2,0.04C159.94,112.1,159.97,112.16,159.97,112.24z"/>
			<path class="st6" d="M161.58,113.21c-0.03-0.03-0.07-0.05-0.11-0.06c-0.04-0.01-0.1-0.01-0.17,0c-0.09,0.02-0.18,0.07-0.25,0.15
				c-0.07,0.09-0.14,0.19-0.19,0.31c-0.05,0.12-0.09,0.25-0.12,0.39c-0.03,0.14-0.04,0.26-0.04,0.38c0,0.15,0.03,0.26,0.08,0.34
				c0.05,0.08,0.15,0.11,0.28,0.08c0.06-0.01,0.11-0.03,0.16-0.06c0.04-0.03,0.09-0.06,0.14-0.11l0.16,0.38
				c-0.07,0.07-0.15,0.13-0.25,0.18c-0.1,0.05-0.2,0.08-0.3,0.1c-0.14,0.02-0.26,0.02-0.36-0.01c-0.1-0.03-0.18-0.08-0.25-0.15
				c-0.07-0.07-0.11-0.16-0.15-0.27c-0.03-0.11-0.05-0.22-0.05-0.35c0-0.19,0.02-0.39,0.07-0.6c0.05-0.2,0.12-0.39,0.22-0.56
				c0.09-0.17,0.21-0.32,0.35-0.44c0.14-0.12,0.3-0.2,0.48-0.23c0.14-0.02,0.26-0.02,0.35,0c0.09,0.03,0.15,0.06,0.2,0.1
				L161.58,113.21z"/>
			<path class="st6" d="M163.65,112.97c0,0.06,0,0.12-0.01,0.18c-0.01,0.06-0.02,0.13-0.03,0.2l-0.15,0.97
				c-0.02,0.09-0.03,0.18-0.04,0.28c-0.01,0.1-0.02,0.17-0.02,0.21l-0.44,0.07c0-0.02,0-0.04,0-0.08c0-0.03,0.01-0.07,0.01-0.1
				c0-0.04,0.01-0.07,0.01-0.1c0-0.03,0.01-0.06,0.02-0.09l-0.01,0c-0.06,0.14-0.13,0.26-0.23,0.34c-0.1,0.09-0.22,0.15-0.38,0.17
				c-0.07,0.01-0.13,0.01-0.2,0c-0.06-0.01-0.12-0.04-0.17-0.07c-0.05-0.04-0.09-0.09-0.12-0.15c-0.03-0.07-0.04-0.15-0.05-0.25
				c0-0.18,0.03-0.34,0.1-0.48c0.07-0.13,0.15-0.25,0.26-0.34c0.11-0.09,0.23-0.17,0.37-0.22c0.14-0.06,0.28-0.09,0.42-0.12
				l0.14-0.02c0.01-0.07,0.02-0.12,0.02-0.16c0-0.03,0-0.06,0-0.08c0-0.21-0.1-0.3-0.3-0.27c-0.09,0.01-0.18,0.05-0.26,0.11
				c-0.08,0.06-0.16,0.12-0.22,0.2l-0.22-0.28c0.1-0.12,0.22-0.22,0.36-0.3c0.14-0.08,0.28-0.14,0.41-0.16
				c0.24-0.04,0.42-0.01,0.53,0.09C163.59,112.6,163.65,112.76,163.65,112.97z M162.94,113.75c-0.08,0.01-0.15,0.03-0.23,0.07
				c-0.07,0.03-0.14,0.07-0.2,0.12c-0.06,0.05-0.1,0.11-0.14,0.19c-0.03,0.07-0.05,0.16-0.05,0.26c0,0.09,0.02,0.16,0.07,0.19
				c0.05,0.03,0.1,0.05,0.16,0.04c0.07-0.01,0.14-0.04,0.2-0.09c0.06-0.05,0.11-0.11,0.15-0.18c0.04-0.07,0.08-0.15,0.11-0.23
				c0.03-0.08,0.05-0.16,0.06-0.24l0.02-0.14L162.94,113.75z"/>
			<path class="st6" d="M166.17,112.72c0,0.19-0.02,0.39-0.07,0.6c-0.05,0.21-0.11,0.4-0.2,0.58c-0.09,0.18-0.19,0.33-0.32,0.46
				c-0.13,0.13-0.27,0.2-0.43,0.23c-0.16,0.03-0.29,0-0.36-0.07c-0.08-0.07-0.13-0.17-0.15-0.28l-0.01,0l-0.06,0.36l-0.5,0.08
				l0.6-3.66l0.51-0.08l-0.25,1.52l0.01,0c0.05-0.12,0.13-0.23,0.23-0.32c0.1-0.09,0.22-0.15,0.36-0.17
				c0.21-0.03,0.37,0.02,0.48,0.15C166.12,112.28,166.17,112.47,166.17,112.72z M165.64,112.88c0-0.14-0.03-0.25-0.08-0.33
				c-0.05-0.08-0.13-0.11-0.24-0.09c-0.09,0.02-0.18,0.07-0.25,0.16c-0.07,0.09-0.14,0.2-0.19,0.32c-0.05,0.13-0.09,0.26-0.11,0.4
				c-0.03,0.14-0.04,0.27-0.04,0.38c0,0.15,0.03,0.27,0.08,0.35c0.05,0.08,0.13,0.12,0.24,0.1c0.1-0.02,0.18-0.07,0.25-0.16
				c0.07-0.09,0.13-0.2,0.19-0.33c0.05-0.13,0.09-0.26,0.11-0.41C165.63,113.13,165.64,113,165.64,112.88z"/>
			<path class="st6" d="M167.08,114.2l-0.53,0.09l0.6-3.66l0.52-0.09L167.08,114.2z"/>
			<path class="st6" d="M169.7,112.11c0,0.06,0,0.14-0.01,0.23c-0.01,0.09-0.02,0.22-0.05,0.38l-1.26,0.21
				c-0.01,0.04-0.01,0.08-0.01,0.12c0,0.04,0,0.07,0,0.11c0,0.14,0.03,0.25,0.09,0.32c0.06,0.08,0.14,0.11,0.26,0.09
				c0.1-0.02,0.18-0.06,0.25-0.13c0.07-0.07,0.12-0.15,0.17-0.24l0.37,0.17c-0.09,0.17-0.2,0.32-0.34,0.44
				c-0.14,0.12-0.31,0.2-0.51,0.24c-0.25,0.04-0.45-0.01-0.59-0.14c-0.14-0.14-0.21-0.35-0.21-0.64c0-0.21,0.02-0.42,0.08-0.62
				c0.05-0.2,0.13-0.39,0.23-0.56c0.1-0.17,0.22-0.31,0.36-0.43c0.14-0.12,0.29-0.19,0.46-0.21c0.13-0.02,0.24-0.02,0.33,0
				c0.09,0.02,0.17,0.07,0.23,0.13c0.06,0.06,0.1,0.14,0.13,0.24C169.69,111.88,169.7,111.99,169.7,112.11z M169.23,112.18
				c0-0.12-0.02-0.21-0.07-0.27c-0.04-0.06-0.11-0.08-0.21-0.07c-0.07,0.01-0.13,0.04-0.19,0.09c-0.06,0.05-0.11,0.11-0.15,0.18
				c-0.04,0.07-0.08,0.14-0.1,0.22c-0.03,0.08-0.04,0.15-0.05,0.21l0.75-0.12c0.01-0.05,0.02-0.09,0.02-0.13
				C169.23,112.25,169.23,112.22,169.23,112.18z"/>
		</g>
		
			<linearGradient id="SVGID_00000041977239836265231350000006051611000970300039_" gradientUnits="userSpaceOnUse" x1="144.6962" y1="61.4668" x2="171.7951" y2="127.335">
			<stop  offset="0" style="stop-color:#3BADE3"/>
			<stop  offset="1" style="stop-color:#252F64"/>
		</linearGradient>
		<path style="fill:url(#SVGID_00000041977239836265231350000006051611000970300039_);" d="M156.98,123.95
			c-8.84,0-17.15-3.39-23.41-9.55c-6.25-6.16-9.7-14.35-9.7-23.07s3.44-16.91,9.7-23.07c6.25-6.16,14.56-9.55,23.41-9.55
			c8.84,0,17.15,3.39,23.41,9.55c6.25,6.16,9.7,14.35,9.7,23.07s-3.44,16.91-9.7,23.07C174.14,120.56,165.82,123.95,156.98,123.95z
			 M156.98,60.99c-8.22,0-15.95,3.16-21.77,8.89c-5.81,5.73-9.02,13.35-9.02,21.45s3.2,15.72,9.02,21.45
			c5.81,5.73,13.55,8.89,21.77,8.89c8.22,0,15.95-3.16,21.77-8.89c5.81-5.73,9.02-13.35,9.02-21.45c0-8.1-3.2-15.72-9.02-21.45
			C172.94,64.15,165.21,60.99,156.98,60.99z"/>
	</g>
	
		<linearGradient id="SVGID_00000020384424605196023660000016732565617905430665_" gradientUnits="userSpaceOnUse" x1="122.873" y1="88.8173" x2="207.2636" y2="95.0563">
		<stop  offset="0.2532" style="stop-color:#27A388"/>
		<stop  offset="1" style="stop-color:#624084"/>
	</linearGradient>
	<path style="fill:url(#SVGID_00000020384424605196023660000016732565617905430665_);" d="M216.67,97.42l7.78-3.57l-7.49-4.14
		c-6.21-3.44-9.44-6.53-10.15-9.72c-0.56-2.54,0.29-5.8,2.67-10.07l0.1-0.03c0.6-1.07,1.3-2.21,2.1-3.41l4.41-6.66l-0.12,0
		l0.08-0.12l-7.99-0.04c-9.52-0.04-13.22-1.97-14.9-4.58c-0.64-1.03-0.97-2.15-1.23-3.32c-0.53-2.39-0.62-5.46-0.29-9.38l0.72-8.53
		l-0.1,0.06l0.01-0.14l-7.28,4.5c-5.96,3.68-10.28,5.03-13.22,4.14c-0.2-0.06-0.4-0.13-0.59-0.22c-2.7-1.2-5.33-4.65-8.02-10.53
		l-3.56-7.78l-0.06,0.1l-0.05-0.12l-4.14,7.49c-3.34,6.05-6.35,9.25-9.45,10.08l0,0.01c-0.03,0.01-0.05,0.02-0.08,0.02
		c-0.27,0.07-0.56,0.1-0.85,0.14c-1.39,0.14-2.97-0.09-4.79-0.72l-1.9,15.4c0.21-0.11,0.41-0.23,0.63-0.34c0,0,0,0,0,0
		c0.7-0.36,1.42-0.69,2.15-1.01c0.15-0.06,0.3-0.12,0.44-0.18c0.55-0.23,1.1-0.45,1.67-0.66c0.25-0.09,0.5-0.18,0.74-0.27
		c0.48-0.17,0.97-0.32,1.46-0.47c0.28-0.08,0.55-0.17,0.83-0.25c0.54-0.15,1.08-0.29,1.63-0.42c0.21-0.05,0.42-0.11,0.64-0.16h0l0,0
		c0.29-0.06,0.58-0.11,0.87-0.17c0.28-0.05,0.55-0.11,0.83-0.16c0.37-0.06,0.73-0.12,1.1-0.17c0.23-0.03,0.45-0.07,0.68-0.1
		c0.38-0.05,0.77-0.09,1.15-0.13c0.2-0.02,0.39-0.04,0.59-0.05c0.41-0.03,0.82-0.07,1.23-0.09c0.12-0.01,0.25-0.01,0.37-0.02
		c2.06-0.09,4.11-0.02,6.12,0.21c0.02,0,0.04,0,0.06,0.01c12.66,1.44,23.97,8.94,30.21,20.1l0.02,0c1.84,3.3,3.25,6.92,4.11,10.8
		c4.02,18.1-4.99,36.05-20.79,44.07c0,0,0,0,0,0c-0.68,0.35-1.38,0.67-2.09,0.98c-0.18,0.08-0.36,0.15-0.54,0.22
		c-0.52,0.22-1.05,0.43-1.58,0.62c-0.25,0.09-0.5,0.18-0.75,0.27c-0.49,0.17-0.99,0.33-1.48,0.48c-0.26,0.08-0.52,0.16-0.79,0.24
		c-0.68,0.19-1.36,0.36-2.05,0.52c-0.04,0.01-0.08,0.02-0.12,0.03h0l0,0c-0.01,0-0.03,0.01-0.04,0.01c-0.3,0.07-0.61,0.12-0.91,0.18
		c-0.27,0.05-0.54,0.11-0.81,0.16c-0.36,0.06-0.72,0.12-1.08,0.17c-0.23,0.03-0.47,0.07-0.7,0.1c-0.38,0.05-0.76,0.09-1.14,0.13
		c-0.19,0.02-0.39,0.04-0.58,0.05c-0.41,0.04-0.83,0.07-1.24,0.09c-0.07,0-0.14,0-0.21,0.01c-1.55,0.07-3.1,0.06-4.62-0.05
		c-0.02,0-0.04,0-0.06,0c-0.51-0.04-1.03-0.08-1.54-0.14c-0.02,0-0.05-0.01-0.07-0.01c-12.65-1.42-23.97-8.89-30.23-20.04l-0.03,0
		c-0.44-0.79-0.86-1.6-1.25-2.42l-16.24,3.54c-0.7,1.32-1.56,2.74-2.57,4.27l-4.41,6.66l0.15,0l-0.07,0.11l7.99,0.04
		c7.05,0.03,10.91,1.1,13.12,2.71c1.9,1.43,2.54,3.27,2.97,5.21c0.53,2.39,0.62,5.46,0.29,9.38l-0.72,8.53l0.15-0.09l-0.01,0.15
		l7.28-4.5c5.54-3.42,9.67-4.83,12.58-4.29c0.18,0.04,0.35,0.08,0.52,0.13c2.94,0.89,5.78,4.42,8.69,10.79l3.56,7.79l0.08-0.15
		l0.07,0.15l4.14-7.49c3.34-6.05,6.35-9.25,9.45-10.08l0-0.01c1.35-0.32,2.91-0.23,4.72,0.27c0-0.02,0.01-0.05,0.01-0.07
		c2.51,0.68,5.51,2.19,9.13,4.57l6.67,4.39l0.04-7.99c0.03-7.4,1.19-11.89,3.64-14.13c2.38-2.19,6.74-2.94,13.72-2.36l8.53,0.7
		l-4.5-7.28c-2.25-3.64-3.6-6.6-4.15-9.06C205.08,106.65,205.25,102.66,216.67,97.42z"/>
</g>
</svg>
